<svg width="555" height="162" viewBox="0 0 555 162" fill="none" xmlns="http://www.w3.org/2000/svg">
<path d="M131.28 110L142.48 54H150.96L167.28 95.04L162.88 94.96L194.8 54H203.76L192.56 110H182.72L190.8 69.2L193.12 69.28L166.08 103.6H161.44L147.28 69.2L149.28 69.44L141.2 110H131.28ZM207.846 126.08C205.713 126.08 203.633 125.733 201.606 125.04C199.526 124.347 197.873 123.44 196.646 122.32L201.606 115.04C202.513 115.84 203.526 116.48 204.646 116.96C205.82 117.493 207.153 117.76 208.646 117.76C210.3 117.76 211.766 117.307 213.046 116.4C214.38 115.547 215.713 114.053 217.046 111.92L220.806 106.08L221.766 105.04L245.286 67.28H255.286L225.846 113.76C223.873 116.853 221.98 119.307 220.166 121.12C218.353 122.933 216.46 124.213 214.486 124.96C212.566 125.707 210.353 126.08 207.846 126.08ZM218.806 111.52L208.326 67.28H218.326L226.726 104.16L218.806 111.52ZM253.936 110L265.136 54H286.896C293.67 54 298.896 55.4933 302.576 58.48C306.31 61.4133 308.176 65.5467 308.176 70.88C308.176 75.5733 307.083 79.6267 304.896 83.04C302.763 86.4 299.696 89.0133 295.696 90.88C291.696 92.6933 286.95 93.6 281.456 93.6H263.216L268.576 88.88L264.416 110H253.936ZM290.736 110L279.296 89.68H290.336L301.776 110H290.736ZM268.336 90.08L264.816 85.04H281.776C286.843 85.04 290.763 83.92 293.536 81.68C296.31 79.44 297.696 76.16 297.696 71.84C297.696 68.8 296.656 66.5333 294.576 65.04C292.55 63.5467 289.616 62.8 285.776 62.8H269.456L274.896 57.6L268.336 90.08ZM332.932 110.56C328.665 110.56 324.959 109.787 321.812 108.24C318.665 106.64 316.212 104.453 314.452 101.68C312.745 98.8533 311.892 95.5467 311.892 91.76C311.892 86.9067 312.959 82.6133 315.092 78.88C317.225 75.1467 320.132 72.2133 323.812 70.08C327.545 67.8933 331.785 66.8 336.532 66.8C340.532 66.8 343.999 67.5467 346.932 69.04C349.865 70.5333 352.132 72.6933 353.732 75.52C355.385 78.2933 356.212 81.6267 356.212 85.52C356.212 86.5333 356.159 87.5733 356.052 88.64C355.945 89.7067 355.785 90.6933 355.572 91.6H319.332L320.452 84.96H350.852L346.772 87.2C347.199 84.48 347.012 82.2133 346.212 80.4C345.412 78.5867 344.132 77.2 342.372 76.24C340.612 75.28 338.505 74.8 336.052 74.8C333.119 74.8 330.559 75.4933 328.372 76.88C326.239 78.2133 324.585 80.1333 323.412 82.64C322.239 85.0933 321.652 87.9733 321.652 91.28C321.652 94.7467 322.639 97.4133 324.612 99.28C326.639 101.147 329.759 102.08 333.972 102.08C336.372 102.08 338.665 101.707 340.852 100.96C343.039 100.16 344.852 99.0667 346.292 97.68L350.452 104.64C348.212 106.613 345.545 108.107 342.452 109.12C339.412 110.08 336.239 110.56 332.932 110.56ZM371.682 110L361.842 67.28H371.682L380.162 104.96H375.122L398.722 67.28H408.802L382.002 110H371.682ZM406.492 110L414.972 67.28H424.972L416.492 110H406.492ZM422.252 60.24C420.439 60.24 418.972 59.7067 417.852 58.64C416.785 57.52 416.252 56.1867 416.252 54.64C416.252 52.8267 416.865 51.3067 418.092 50.08C419.372 48.8533 421.025 48.24 423.052 48.24C424.812 48.24 426.252 48.7733 427.372 49.84C428.492 50.8533 429.052 52.1067 429.052 53.6C429.052 55.5733 428.439 57.1733 427.212 58.4C425.985 59.6267 424.332 60.24 422.252 60.24ZM451.057 110.56C446.79 110.56 443.084 109.787 439.937 108.24C436.79 106.64 434.337 104.453 432.577 101.68C430.87 98.8533 430.017 95.5467 430.017 91.76C430.017 86.9067 431.084 82.6133 433.217 78.88C435.35 75.1467 438.257 72.2133 441.937 70.08C445.67 67.8933 449.91 66.8 454.657 66.8C458.657 66.8 462.124 67.5467 465.057 69.04C467.99 70.5333 470.257 72.6933 471.857 75.52C473.51 78.2933 474.337 81.6267 474.337 85.52C474.337 86.5333 474.284 87.5733 474.177 88.64C474.07 89.7067 473.91 90.6933 473.697 91.6H437.457L438.577 84.96H468.977L464.897 87.2C465.324 84.48 465.137 82.2133 464.337 80.4C463.537 78.5867 462.257 77.2 460.497 76.24C458.737 75.28 456.63 74.8 454.177 74.8C451.244 74.8 448.684 75.4933 446.497 76.88C444.364 78.2133 442.71 80.1333 441.537 82.64C440.364 85.0933 439.777 87.9733 439.777 91.28C439.777 94.7467 440.764 97.4133 442.737 99.28C444.764 101.147 447.884 102.08 452.097 102.08C454.497 102.08 456.79 101.707 458.977 100.96C461.164 100.16 462.977 99.0667 464.417 97.68L468.577 104.64C466.337 106.613 463.67 108.107 460.577 109.12C457.537 110.08 454.364 110.56 451.057 110.56ZM488.207 110L480.367 67.28H489.487L496.047 104.96H491.407L512.767 67.28H521.327L528.127 104.96H523.487L544.607 67.28H554.047L530.207 110H520.367L513.887 76.64H516.847L497.887 110H488.207Z" fill="#777E5C"/>
<path d="M12.7209 140.078V160.078C13 163.686 16.5 161.186 18 160.186L38.2208 145.078H67C97 145.686 106.221 129.411 107.721 119.078V49.0781L110 49.6855C127.279 55.2929 128.554 49.5781 127.221 45.578L90 6.1856L89.9999 6.18553C84.5 0.685587 81.5 -2.3144 76 2.18558C64.6667 14.1856 41.0208 39.2781 36.2208 44.0781C31.4208 48.8781 35 52.1855 38.5 51.6855L54.7208 49.0781V60.5781H25.2208C9.22083 62.5781 1.88752 77.7447 0.220861 85.078C0.054194 93.578 -0.179139 112.778 0.220861 121.578C0.620861 130.378 8.72086 137.578 12.7209 140.078Z" fill="#777E5C"/>
<path fill-rule="evenodd" clip-rule="evenodd" d="M29.5135 91.6856L32.2589 98.1992L39 98.958L33.9528 103.715L35.349 110.686L29.4846 107.111L23.6064 110.661L25.029 103.696L20 98.9184L26.7435 98.1877L29.5135 91.6856Z" fill="white"/>
<path fill-rule="evenodd" clip-rule="evenodd" d="M54.5135 91.6856L57.2589 98.1992L64 98.958L58.9528 103.715L60.349 110.686L54.4846 107.111L48.6064 110.661L50.029 103.696L45 98.9184L51.7435 98.1877L54.5135 91.6856Z" fill="white"/>
<path fill-rule="evenodd" clip-rule="evenodd" d="M80.5135 91.6856L83.2589 98.1992L90 98.958L84.9528 103.715L86.349 110.686L80.4846 107.111L74.6064 110.661L76.029 103.696L71 98.9184L77.7435 98.1877L80.5135 91.6856Z" fill="white"/>
</svg>
