<svg width="48" height="60" viewBox="0 0 48 60" fill="none" xmlns="http://www.w3.org/2000/svg">
<path d="M4.72163 51.8807V59.2881C4.82523 60.6244 6.12432 59.6985 6.68108 59.3281L14.1865 53.7326H24.8685C36.0036 53.9578 39.4262 47.93 39.9829 44.103V18.1771L40.8288 18.402C47.2423 20.4788 47.7155 18.3623 47.2208 16.8807L33.4054 2.29096C31.364 0.253945 30.2505 -0.857187 28.209 0.809472C24.0024 5.25392 15.2257 14.5474 13.4441 16.3252C11.6625 18.103 12.991 19.328 14.2901 19.1428L20.3108 18.1771V22.4363H9.36123C3.42251 23.1771 0.700593 28.7943 0.0819772 31.5104C0.0201152 34.6585 -0.0664913 41.7696 0.0819772 45.0289C0.230446 48.2881 3.23693 50.9548 4.72163 51.8807Z" fill="#777E5C"/>
<path fill-rule="evenodd" clip-rule="evenodd" d="M11.5311 34.5L12.5502 36.9124L15.0523 37.1935L13.1789 38.9553L13.6971 41.5372L11.5204 40.2131L9.33859 41.5279L9.86662 38.9483L8 37.1788L10.503 36.9082L11.5311 34.5Z" fill="#DFE0DB"/>
<path fill-rule="evenodd" clip-rule="evenodd" d="M20.8104 34.5L21.8294 36.9124L24.3315 37.1935L22.4582 38.9553L22.9764 41.5372L20.7997 40.2131L18.6179 41.5279L19.1459 38.9483L17.2793 37.1788L19.7823 36.9082L20.8104 34.5Z" fill="#DFE0DB"/>
<path fill-rule="evenodd" clip-rule="evenodd" d="M30.4608 34.5L31.4798 36.9124L33.9819 37.1935L32.1086 38.9553L32.6268 41.5372L30.4501 40.2131L28.2683 41.5279L28.7963 38.9483L26.9297 37.1788L29.4327 36.9082L30.4608 34.5Z" fill="#DFE0DB"/>
</svg>
